<svg width="85" height="85" viewBox="0 0 85 85" fill="none" xmlns="http://www.w3.org/2000/svg">
<path d="M42.3653 70.8332C35.1734 70.8332 28.9035 68.4839 23.5555 63.7853C18.21 59.089 15.1169 53.1744 14.2764 46.0415H17.857C18.8203 52.1332 21.5958 57.1978 26.1835 61.2353C30.7711 65.2728 36.165 67.2915 42.3653 67.2915C49.2716 67.2915 55.1295 64.8867 59.9391 60.0771C64.7487 55.2675 67.1546 49.4084 67.157 42.4998C67.1594 35.5912 64.7534 29.7321 59.9391 24.9225C55.1248 20.113 49.2669 17.7082 42.3653 17.7082C38.6985 17.7082 35.2537 18.4826 32.0307 20.0315C28.8078 21.578 25.9627 23.7089 23.4953 26.4242H32.2822V29.9659H17.5737V15.2609H21.1153V23.7184C23.8542 20.7127 27.063 18.3705 30.7416 16.6917C34.4202 15.013 38.2948 14.1712 42.3653 14.1665C46.2919 14.1665 49.9728 14.9055 53.4082 16.3836C56.8437 17.8616 59.8446 19.8851 62.4112 22.454C64.9777 25.0229 67.0012 28.0239 68.4816 31.4569C69.962 34.89 70.701 38.5709 70.6987 42.4998C70.6963 46.4287 69.9573 50.1097 68.4816 53.5428C67.0059 56.9758 64.9824 59.9768 62.4112 62.5457C59.8399 65.1146 56.8389 67.138 53.4082 68.6161C49.9775 70.0941 46.2966 70.8332 42.3653 70.8332ZM53.7128 56.1494L40.7964 43.2365V24.7915H44.338V41.7632L56.2168 53.6419L53.7128 56.1494Z" fill="white"/>
</svg>
