<svg width="100" height="100" viewBox="0 0 100 100" fill="none" xmlns="http://www.w3.org/2000/svg">
<path d="M49.8417 83.3333C41.3806 83.3333 34.0042 80.5694 27.7125 75.0417C21.4236 69.5167 17.7847 62.5583 16.7958 54.1667H21.0083C22.1417 61.3333 25.4069 67.2917 30.8042 72.0417C36.2014 76.7917 42.5472 79.1667 49.8417 79.1667C57.9667 79.1667 64.8583 76.3375 70.5167 70.6792C76.175 65.0208 79.0056 58.1278 79.0083 50C79.0111 41.8722 76.1806 34.9792 70.5167 29.3208C64.8528 23.6625 57.9611 20.8333 49.8417 20.8333C45.5278 20.8333 41.475 21.7444 37.6833 23.5667C33.8917 25.3861 30.5444 27.8931 27.6417 31.0875H37.9792V35.2542H20.675V17.9542H24.8417V27.9042C28.0639 24.3681 31.8389 21.6125 36.1667 19.6375C40.4944 17.6625 45.0528 16.6722 49.8417 16.6667C54.4611 16.6667 58.7917 17.5361 62.8333 19.275C66.875 21.0139 70.4056 23.3944 73.425 26.4167C76.4444 29.4389 78.825 32.9694 80.5667 37.0083C82.3083 41.0472 83.1778 45.3778 83.175 50C83.1722 54.6222 82.3028 58.9528 80.5667 62.9917C78.8306 67.0306 76.45 70.5611 73.425 73.5833C70.4 76.6056 66.8694 78.9861 62.8333 80.725C58.7972 82.4639 54.4667 83.3333 49.8417 83.3333ZM63.1917 66.0583L47.9958 50.8667V29.1667H52.1625V49.1333L66.1375 63.1083L63.1917 66.0583Z" fill="#606060"/>
</svg>
