<svg width="85" height="85" viewBox="0 0 85 85" fill="none" xmlns="http://www.w3.org/2000/svg">
<path d="M42.3653 70.8333C35.1734 70.8333 28.9035 68.484 23.5555 63.7854C18.21 59.0891 15.1169 53.1745 14.2764 46.0416H17.857C18.8203 52.1333 21.5958 57.1979 26.1835 61.2354C30.7711 65.2729 36.165 67.2916 42.3653 67.2916C49.2716 67.2916 55.1295 64.8868 59.9391 60.0772C64.7487 55.2677 67.1546 49.4086 67.157 42.5C67.1594 35.5913 64.7534 29.7323 59.9391 24.9227C55.1248 20.1131 49.2669 17.7083 42.3653 17.7083C38.6985 17.7083 35.2537 18.4827 32.0307 20.0316C28.8078 21.5782 25.9627 23.7091 23.4953 26.4243H32.2822V29.966H17.5737V15.261H21.1153V23.7185C23.8542 20.7128 27.063 18.3706 30.7416 16.6918C34.4202 15.0131 38.2948 14.1713 42.3653 14.1666C46.2919 14.1666 49.9728 14.9057 53.4082 16.3837C56.8437 17.8618 59.8446 19.8852 62.4112 22.4541C64.9777 25.023 67.0012 28.024 68.4816 31.457C69.962 34.8901 70.701 38.5711 70.6987 42.5C70.6963 46.4288 69.9573 50.1098 68.4816 53.5429C67.0059 56.9759 64.9824 59.9769 62.4112 62.5458C59.8399 65.1147 56.8389 67.1382 53.4082 68.6162C49.9775 70.0943 46.2966 70.8333 42.3653 70.8333ZM53.7128 56.1495L40.7964 43.2366V24.7916H44.338V41.7633L56.2168 53.642L53.7128 56.1495Z" fill="black"/>
</svg>
