<svg width="85" height="85" viewBox="0 0 85 85" fill="none" xmlns="http://www.w3.org/2000/svg">
<path d="M42.5 70.8335C46.9271 70.8335 50.6907 69.2846 53.7908 66.1868C56.891 63.0891 58.4399 59.3255 58.4375 54.896C58.4351 50.4666 56.8863 46.7041 53.7908 43.6087C50.6954 40.5133 46.9318 38.9632 42.5 38.9585C38.0682 38.9538 34.3058 40.5039 31.2127 43.6087C28.1197 46.7136 26.5696 50.476 26.5625 54.896C26.5554 59.316 28.1055 63.0796 31.2127 66.1868C34.3199 69.2941 38.0824 70.843 42.5 70.8335ZM32.2788 38.3741C33.4121 37.6328 34.6198 37.0366 35.9019 36.5856C37.1863 36.1346 38.5074 35.8041 39.865 35.5939L31.8042 19.6139H22.95L32.2788 38.3741ZM52.7212 38.3741L62.135 19.6139H53.1958L45.4644 34.9387L45.854 35.7179C47.0888 35.954 48.2835 36.2846 49.4381 36.7096C50.5903 37.1346 51.6859 37.6894 52.7248 38.3741M25.5992 67.0616C25.6393 66.665 25.7314 66.2282 25.8754 65.7512C26.0171 65.2696 26.2249 64.7619 26.4987 64.2283C25.4079 62.4646 24.6205 60.5603 24.1365 58.5156C23.6524 56.4709 23.5273 54.3659 23.761 52.2008C23.761 50.43 24.068 48.7489 24.6819 47.1575C25.2934 45.5684 26.1434 44.1388 27.2319 42.8685C26.389 43.0125 25.6464 43.3148 25.0042 43.7752C24.3667 44.238 23.911 44.7893 23.6371 45.4291C21.0044 46.069 18.9515 47.5506 17.4781 49.8739C16.0072 52.1949 15.5585 54.7685 16.1323 57.5948C16.1323 60.2274 17.0519 62.4634 18.8913 64.3027C20.7282 66.1396 22.9642 67.0616 25.5992 67.0616ZM59.4079 67.0581C62.6143 66.8692 65.3201 65.6131 67.5254 63.2898C69.7331 60.9688 70.8369 58.1709 70.8369 54.896C70.8369 51.6212 69.7331 48.8232 67.5254 46.5023C65.3178 44.1813 62.6119 42.924 59.4079 42.7304C59.1364 42.7304 58.8649 42.7422 58.5933 42.7658C58.3194 42.7894 58.0456 42.8237 57.7717 42.8685C59.0939 44.5355 60.1257 46.3913 60.8671 48.436C61.6108 50.4807 61.9827 52.6341 61.9827 54.896C61.9827 57.158 61.612 59.3113 60.8706 61.356C60.1269 63.4007 59.0951 65.2566 57.7752 66.9235C58.0467 66.9707 58.3183 67.005 58.5898 67.0262C58.8637 67.0498 59.1364 67.0581 59.4079 67.0581ZM42.5 74.3752C40.231 74.3752 38.0871 74.0246 36.0683 73.3233C34.0496 72.6221 32.2162 71.6127 30.5681 70.2952C29.9448 70.5053 29.2884 70.647 28.599 70.7202C27.9095 70.7934 27.2012 70.8312 26.474 70.8335C22.1012 70.8335 18.3671 69.2858 15.2717 66.1904C12.1762 63.095 10.6274 59.3597 10.625 54.9846C10.625 50.6661 12.1326 46.9721 15.1477 43.9027C18.1628 40.8332 21.8155 39.2513 26.1056 39.1568C26.6062 39.1568 27.0831 39.1911 27.5365 39.2596C27.9898 39.3257 28.4431 39.4048 28.8965 39.4969L17.1629 16.0758H34.0567L42.5 32.966L50.9469 16.0723H67.8371L56.2558 39.2525C56.6667 39.1604 57.0881 39.0919 57.5202 39.0471C57.9499 38.9998 58.3926 38.9762 58.8483 38.9762C63.1833 39.0872 66.8549 40.6774 69.8629 43.7469C72.871 46.8163 74.375 50.5327 74.375 54.896C74.375 59.3278 72.8273 63.0926 69.7319 66.1904C66.6365 69.2882 62.8717 70.8359 58.4375 70.8335C57.7244 70.8335 57.0315 70.7957 56.3585 70.7202C55.6856 70.6446 55.0363 70.503 54.4106 70.2952C52.7649 71.5678 50.9351 72.5654 48.921 73.2879C46.907 74.0104 44.7667 74.3728 42.5 74.3752ZM36.9715 62.9994L39.0398 56.1675L33.5113 52.2256H40.3431L42.5 45.0218L44.6604 52.2256H51.4923L45.9602 56.171L48.0321 63.0029L42.5 58.7919L36.9715 62.9994Z" fill="white"/>
</svg>
