<svg width="85" height="85" viewBox="0 0 85 85" fill="none" xmlns="http://www.w3.org/2000/svg">
<path d="M42.5 70.8334C46.9271 70.8334 50.6907 69.2845 53.7908 66.1867C56.891 63.0889 58.4399 59.3253 58.4375 54.8959C58.4351 50.4664 56.8863 46.704 53.7908 43.6086C50.6954 40.5132 46.9318 38.9631 42.5 38.9584C38.0682 38.9537 34.3058 40.5037 31.2127 43.6086C28.1197 46.7135 26.5696 50.4759 26.5625 54.8959C26.5554 59.3159 28.1055 63.0795 31.2127 66.1867C34.3199 69.2939 38.0824 70.8428 42.5 70.8334ZM32.2788 38.374C33.4121 37.6326 34.6198 37.0364 35.9019 36.5855C37.1863 36.1345 38.5074 35.8039 39.865 35.5938L31.8042 19.6138H22.95L32.2788 38.374ZM52.7212 38.374L62.135 19.6138H53.1958L45.4644 34.9386L45.854 35.7178C47.0888 35.9539 48.2835 36.2844 49.4381 36.7094C50.5903 37.1344 51.6859 37.6893 52.7248 38.374M25.5992 67.0615C25.6393 66.6649 25.7314 66.228 25.8754 65.7511C26.0171 65.2694 26.2249 64.7618 26.4987 64.2282C25.4079 62.4644 24.6205 60.5602 24.1365 58.5155C23.6524 56.4708 23.5273 54.3658 23.761 52.2007C23.761 50.4299 24.068 48.7487 24.6819 47.1574C25.2934 45.5683 26.1434 44.1387 27.2319 42.8684C26.389 43.0124 25.6464 43.3146 25.0042 43.7751C24.3667 44.2378 23.911 44.7892 23.6371 45.429C21.0044 46.0689 18.9515 47.5505 17.4781 49.8738C16.0072 52.1948 15.5585 54.7684 16.1323 57.5946C16.1323 60.2273 17.0519 62.4633 18.8913 64.3026C20.7282 66.1395 22.9642 67.0615 25.5992 67.0615ZM59.4079 67.058C62.6143 66.8691 65.3201 65.613 67.5254 63.2896C69.7331 60.9687 70.8369 58.1708 70.8369 54.8959C70.8369 51.621 69.7331 48.8231 67.5254 46.5021C65.3178 44.1812 62.6119 42.9239 59.4079 42.7303C59.1364 42.7303 58.8649 42.7421 58.5933 42.7657C58.3194 42.7893 58.0456 42.8235 57.7717 42.8684C59.0939 44.5353 60.1257 46.3912 60.8671 48.4359C61.6108 50.4806 61.9827 52.6339 61.9827 54.8959C61.9827 57.1578 61.612 59.3112 60.8706 61.3559C60.1269 63.4006 59.0951 65.2564 57.7752 66.9234C58.0467 66.9706 58.3183 67.0048 58.5898 67.0261C58.8637 67.0497 59.1364 67.058 59.4079 67.058ZM42.5 74.3751C40.231 74.3751 38.0871 74.0244 36.0683 73.3232C34.0496 72.6219 32.2162 71.6126 30.5681 70.2951C29.9448 70.5052 29.2884 70.6469 28.599 70.7201C27.9095 70.7933 27.2012 70.831 26.474 70.8334C22.1012 70.8334 18.3671 69.2857 15.2717 66.1903C12.1762 63.0948 10.6274 59.3596 10.625 54.9844C10.625 50.666 12.1326 46.972 15.1477 43.9026C18.1628 40.8331 21.8155 39.2512 26.1056 39.1567C26.6062 39.1567 27.0831 39.191 27.5365 39.2594C27.9898 39.3255 28.4431 39.4046 28.8965 39.4967L17.1629 16.0757H34.0567L42.5 32.9659L50.9469 16.0721H67.8371L56.2558 39.2524C56.6667 39.1603 57.0881 39.0918 57.5202 39.0469C57.9499 38.9997 58.3926 38.9761 58.8483 38.9761C63.1833 39.0871 66.8549 40.6773 69.8629 43.7467C72.871 46.8162 74.375 50.5326 74.375 54.8959C74.375 59.3277 72.8273 63.0925 69.7319 66.1903C66.6365 69.288 62.8717 70.8358 58.4375 70.8334C57.7244 70.8334 57.0315 70.7956 56.3585 70.7201C55.6856 70.6445 55.0363 70.5028 54.4106 70.2951C52.7649 71.5677 50.9351 72.5653 48.921 73.2878C46.907 74.0103 44.7667 74.3727 42.5 74.3751ZM36.9715 62.9992L39.0398 56.1674L33.5113 52.2255H40.3431L42.5 45.0217L44.6604 52.2255H51.4923L45.9602 56.1709L48.0321 63.0028L42.5 58.7917L36.9715 62.9992Z" fill="black"/>
</svg>
