<svg width="85" height="85" viewBox="0 0 85 85" fill="none" xmlns="http://www.w3.org/2000/svg">
<path d="M42.7833 13.6001C27.1348 13.6001 14.45 26.2849 14.45 41.9334C14.45 57.5819 27.1348 70.2668 42.7833 70.2668C58.4318 70.2668 71.1166 57.5819 71.1166 41.9334C71.1166 26.2849 58.4318 13.6001 42.7833 13.6001Z" stroke="white" stroke-width="2.5" stroke-linecap="round" stroke-linejoin="round"/>
<path d="M20.8845 59.9139C20.8845 59.9139 27.2 51.8503 42.7834 51.8503C58.3667 51.8503 64.685 59.9139 64.685 59.9139M42.7834 41.9336C45.0377 41.9336 47.1997 41.0381 48.7938 39.444C50.3878 37.8499 51.2834 35.6879 51.2834 33.4336C51.2834 31.1793 50.3878 29.0172 48.7938 27.4232C47.1997 25.8291 45.0377 24.9336 42.7834 24.9336C40.529 24.9336 38.367 25.8291 36.7729 27.4232C35.1789 29.0172 34.2834 31.1793 34.2834 33.4336C34.2834 35.6879 35.1789 37.8499 36.7729 39.444C38.367 41.0381 40.529 41.9336 42.7834 41.9336Z" stroke="white" stroke-width="2.5" stroke-linecap="round" stroke-linejoin="round"/>
</svg>
