<svg width="85" height="85" viewBox="0 0 85 85" fill="none" xmlns="http://www.w3.org/2000/svg">
<path d="M42.7833 13.6C27.1348 13.6 14.45 26.2848 14.45 41.9333C14.45 57.5818 27.1348 70.2666 42.7833 70.2666C58.4318 70.2666 71.1166 57.5818 71.1166 41.9333C71.1166 26.2848 58.4318 13.6 42.7833 13.6Z" stroke="black" stroke-width="2.5" stroke-linecap="round" stroke-linejoin="round"/>
<path d="M20.8845 59.9137C20.8845 59.9137 27.2 51.85 42.7834 51.85C58.3667 51.85 64.685 59.9137 64.685 59.9137M42.7834 41.9333C45.0377 41.9333 47.1997 41.0378 48.7938 39.4438C50.3878 37.8497 51.2834 35.6877 51.2834 33.4333C51.2834 31.179 50.3878 29.017 48.7938 27.4229C47.1997 25.8289 45.0377 24.9333 42.7834 24.9333C40.529 24.9333 38.367 25.8289 36.7729 27.4229C35.1789 29.017 34.2834 31.179 34.2834 33.4333C34.2834 35.6877 35.1789 37.8497 36.7729 39.4438C38.367 41.0378 40.529 41.9333 42.7834 41.9333Z" stroke="black" stroke-width="2.5" stroke-linecap="round" stroke-linejoin="round"/>
</svg>
